<svg width="15" height="14" viewBox="0 0 15 14" fill="none" xmlns="http://www.w3.org/2000/svg">
<path d="M5.37484 0.416748L4.07859 1.83341H1.83317C1.054 1.83341 0.416504 2.47091 0.416504 3.25008V11.7501C0.416504 12.5292 1.054 13.1667 1.83317 13.1667H13.1665C13.9457 13.1667 14.5832 12.5292 14.5832 11.7501V3.25008C14.5832 2.47091 13.9457 1.83341 13.1665 1.83341H10.9211L9.62484 0.416748H5.37484ZM7.49984 11.0417C5.54484 11.0417 3.95817 9.45508 3.95817 7.50008C3.95817 5.54508 5.54484 3.95841 7.49984 3.95841C9.45484 3.95841 11.0415 5.54508 11.0415 7.50008C11.0415 9.45508 9.45484 11.0417 7.49984 11.0417Z" fill="black"/>
</svg>
