<svg width="21" height="25" viewBox="0 0 21 25" fill="none" xmlns="http://www.w3.org/2000/svg">
<path d="M7.5 18.8888H13.5C14.325 18.8888 15 18.2137 15 17.3888V9.88875H17.385C18.72 9.88875 19.395 8.26875 18.45 7.32375L11.565 0.43875C10.98 -0.14625 10.035 -0.14625 9.45 0.43875L2.565 7.32375C1.62 8.26875 2.28 9.88875 3.615 9.88875H6V17.3888C6 18.2137 6.675 18.8888 7.5 18.8888ZM1.5 21.8888H19.5C20.325 21.8888 21 22.5637 21 23.3888C21 24.2137 20.325 24.8888 19.5 24.8888H1.5C0.675 24.8888 0 24.2137 0 23.3888C0 22.5637 0.675 21.8888 1.5 21.8888Z" fill="#0094FF"/>
</svg>
